<?xml version="1.0" encoding="utf-8"?>
<!-- Generator: Adobe Illustrator 27.6.1, SVG Export Plug-In . SVG Version: 6.00 Build 0)  -->
<svg version="1.1" id="Layer_1" xmlns="http://www.w3.org/2000/svg" xmlns:xlink="http://www.w3.org/1999/xlink" x="0px" y="0px"
	 viewBox="0 0 1157 212" style="enable-background:new 0 0 1157 212;" xml:space="preserve">
<style type="text/css">
	.st0{fill:#FFFFFF;}
	.st1{fill-rule:evenodd;clip-rule:evenodd;fill:#FFFFFF;}
	.st2{fill:#E31E26;}
</style>
<path class="st0" d="M1074.5,91.8l27.7-16.5l2.5-4.8h48.3l-101,141.5h-7.3l0,0h-60.4l0,0h-6.9l41.8-90.6h42.3l-57,71.2h36.8
	l52.5-101l-27.4,14.6l-5,0.2h-17.1l49.4-79.8l-2.7,2.9L1069,47.7h-4.7l0,0h-21.1l15.9-47.2h40.9l-21.5,28.4l10.7-9.5l18.4-15.2
	l2.5-4h46.4L1074.5,91.8z"/>
<path class="st0" d="M956.3,212h-9.7l61.8-211.7h42.8L956.3,212z"/>
<path class="st1" d="M597.5,0.2h28.7l-31.1,61.1l-1.5,5.1l37.3-57.3l2.1-8.9h42.8l-61.9,130.8h0.3l-1.6,2.8l-1.6,3.4h-0.4l-7.8,13.3
	H557l-27.5,61.4h-9.7l21.2-65.6l3.1-7.1l-38.3,62.9l-1.6,9.9h-42.8L517,75h0.1l5.2-13.3H566l12.3-48.6l-5.3,1.6l-28,29.4h-3.6
	l13.4-44L597.5,0.2L597.5,0.2z M510.3,174.5l43.3-64.2l7.4-29.1h-35.4L510.3,174.5z M577.5,104.8l-11.7,26.2h36.9l21-90.7
	L577.5,104.8z"/>
<path class="st1" d="M348.2,69.8l-2.3,5.2l5.9-8.2l37.8-58.6l1.9-8h42.8L370,136.1l-8,17.2h-50.1l-25.6,58.7h-9.7L338.4,0.2h42.8
	L348.2,69.8z M327.8,116.6l-7.5,17.1h40.3l22.5-97L327.8,116.6z"/>
<path class="st1" d="M916.4,69.8l-2.3,5.2l5.9-8.2l37.8-58.6l1.9-8h42.8l-63.2,133.5l-9.1,19.5H880l-25.6,58.7h-9.7L906.5,0.2h42.8
	L916.4,69.8z M895.9,116.6l-7.5,17.1h40.3l22.5-97L895.9,116.6z"/>
<path class="st0" d="M736.6,0.2h9.7l-19.4,66.2l57.9-66.2l0,0l0,0h9.7l-61.8,211.7h-42.8l79.9-178.2l-50.3,57.9l-35.1,120.2h-42.8
	l79.9-178.2l-50.5,58.1l-35.1,120h-42.8L688.1,0.2h9.7l-19.4,66.5L736.6,0.2L736.6,0.2z"/>
<path class="st0" d="M200.3,0.2h37.1l-79.8,178.1l50.2-57.9L243,0.2h42.8l-79.8,178.1l50.4-58.1l35.1-120h42.8l-94.9,211.7h-9.7
	l19.4-66.5l-58.1,66.4l0,0h-9.7l19.4-66.2l-57.9,66.2l0,0h-9.7l57.5-197l0,0l-28,29.4h-3.6L172.2,0L200.3,0.2z"/>
<path class="st1" d="M847.5,12.4l34.9-9.5l1.2-2.7h9.7l-61.8,211.7h-42.8l5.6-12.4l-34.9,9.5l-1.3,2.9h-9.7L810.2,0.1H853
	L847.5,12.4z M841.6,25.5l-76.4,170.3l34.9-9.5L876.5,16L841.6,25.5z"/>
<path class="st0" d="M415.8,150.3l13.4-22.6L508.3,0l0,0l0,0h9.7l-2.2,7.6l0,0l0,0l-59.6,204.1h-42.8l69.7-155.5L472.6,75
	l-84.3,136.7l0,0h-9.7L440.5,0h42.8L415.8,150.3z"/>
<path class="st2" d="M77.3,49.8h6.4l46.4-0.2l-50.9,59.5h-5.7l4.5-41l-4.8,10.4L19.8,211.3l-5-0.3L34.3,76.5l1.8-8.4L6.4,108.9H2.5
	L0,49.6l46,0.2L45.9,0.2h64L77.3,49.8z"/>
</svg>
